<svg width="17" height="17" viewBox="0 0 17 17" fill="none" xmlns="http://www.w3.org/2000/svg">
<g clip-path="url(#clip0_2_1788)">
<path d="M8.5 0.708344V16.2917" stroke="#FAF8ED" stroke-width="1.5" stroke-linecap="round" stroke-linejoin="round"/>
<path d="M12.0417 3.54166H6.72917C6.07165 3.54166 5.44107 3.80285 4.97613 4.26779C4.5112 4.73272 4.25 5.36331 4.25 6.02082C4.25 6.67834 4.5112 7.30893 4.97613 7.77386C5.44107 8.23879 6.07165 8.49999 6.72917 8.49999H10.2708C10.9283 8.49999 11.5589 8.76119 12.0239 9.22612C12.4888 9.69106 12.75 10.3216 12.75 10.9792C12.75 11.6367 12.4888 12.2673 12.0239 12.7322C11.5589 13.1971 10.9283 13.4583 10.2708 13.4583H4.25" stroke="#FAF8ED" stroke-width="1.5" stroke-linecap="round" stroke-linejoin="round"/>
</g>
<defs>
<clipPath id="clip0_2_1788">
<rect width="17" height="17" fill="white"/>
</clipPath>
</defs>
</svg>
