<svg width="18" height="18" viewBox="0 0 18 18" fill="none" xmlns="http://www.w3.org/2000/svg">
<g clip-path="url(#clip0_2_1771)">
<path d="M4.89623 5.44974H4.68504L4.29041 7.42342H5.29087L4.89623 5.44974Z" fill="#FAF8ED"/>
<path d="M12.8786 9.39709C13.0917 9.96943 13.375 10.4327 13.6887 10.8269C14.0023 10.4327 14.3186 9.9694 14.5316 9.39709H12.8786Z" fill="#FAF8ED"/>
<path d="M15.6952 3.93658H9.56748L10.8452 14.1892C10.8678 14.6085 10.7531 15.0033 10.4794 15.3124L8.3157 17.7853H15.6952C16.5114 17.7853 17.1755 17.1213 17.1755 16.305V5.44974C17.1755 4.63349 16.5114 3.93658 15.6952 3.93658ZM15.6952 9.39711H15.5634C15.2827 10.2979 14.8374 11.0027 14.3747 11.5584C14.7372 11.8897 15.1248 12.1616 15.5102 12.4661C15.7227 12.6362 15.7574 12.9465 15.5868 13.1594C15.417 13.3721 15.1055 13.4066 14.8934 13.2361C14.4747 12.9056 14.0816 12.6289 13.6886 12.2683C13.2956 12.6289 12.9355 12.9056 12.5167 13.2361C12.3047 13.4066 11.9932 13.3721 11.8234 13.1594C11.6528 12.9465 11.6875 12.6362 11.9 12.4661C12.2853 12.1616 12.64 11.8897 13.0025 11.5584C12.5398 11.0027 12.1274 10.2979 11.8467 9.39711H11.7149C11.4422 9.39711 11.2215 9.17642 11.2215 8.90369C11.2215 8.63096 11.4422 8.41027 11.7149 8.41027H13.1952V7.91685C13.1952 7.64412 13.4159 7.42343 13.6886 7.42343C13.9613 7.42343 14.182 7.64412 14.182 7.91685V8.41027H15.6952C15.9679 8.41027 16.1886 8.63096 16.1886 8.90369C16.1886 9.17642 15.9679 9.39711 15.6952 9.39711Z" fill="#FAF8ED"/>
<path d="M8.36521 2.23979C8.27317 1.50062 7.64146 0.943115 6.89652 0.943115H1.81376C0.997509 0.943115 0.333496 1.60713 0.333496 2.42338V13.3444C0.333496 14.1607 0.997509 14.8247 1.81376 14.8247C4.76343 14.8247 6.88537 14.8247 9.59504 14.8247C9.73899 14.6602 9.85965 14.5571 9.86475 14.3424C9.866 14.2885 8.37188 2.29321 8.36521 2.23979ZM6.38429 10.3743C6.12264 10.4281 5.85761 10.2582 5.80366 9.98733L5.4883 8.41022H4.0932L3.77784 9.98733C3.72484 10.2543 3.46751 10.4297 3.19721 10.3743C2.93027 10.3208 2.75679 10.0611 2.81027 9.79364L3.79708 4.85943C3.84333 4.6291 4.04573 4.46285 4.28086 4.46285H5.3006C5.53573 4.46285 5.73813 4.6291 5.78438 4.85943L6.77123 9.79364C6.82471 10.0611 6.65126 10.3208 6.38429 10.3743Z" fill="#FAF8ED"/>
<path d="M6.0986 15.8116L6.18327 16.4886C6.23972 16.942 6.54097 17.4043 7.0365 17.6352C7.97163 16.6058 7.40587 17.2285 8.69304 15.8116H6.0986Z" fill="#FAF8ED"/>
</g>
<defs>
<clipPath id="clip0_2_1771">
<rect width="16.8421" height="16.8421" fill="white" transform="translate(0.333496 0.943115)"/>
</clipPath>
</defs>
</svg>
