<svg width="99" height="100" viewBox="0 0 99 100" fill="none" xmlns="http://www.w3.org/2000/svg">
<path d="M74.25 89.375H30.4835C30.1245 89.375 29.7803 89.231 29.5264 88.9746C29.2726 88.7182 29.13 88.3704 29.13 88.0078V11.9922C29.13 11.6296 29.2726 11.2818 29.5264 11.0254C29.7803 10.769 30.1245 10.625 30.4835 10.625H74.25C74.609 10.625 74.9533 10.769 75.2071 11.0254C75.4609 11.2818 75.6035 11.6296 75.6035 11.9922V42.1875C75.6035 42.5501 75.4609 42.8979 75.2071 43.1542C74.9533 43.4106 74.609 43.5547 74.25 43.5547C73.8911 43.5547 73.5468 43.4106 73.2929 43.1542C73.0391 42.8979 72.8965 42.5501 72.8965 42.1875V13.3594H31.837V86.6406H72.8965V57.8125C72.8965 57.4499 73.0391 57.1022 73.2929 56.8458C73.5468 56.5894 73.8911 56.4453 74.25 56.4453C74.609 56.4453 74.9533 56.5894 75.2071 56.8458C75.4609 57.1022 75.6035 57.4499 75.6035 57.8125V88.0078C75.6035 88.3704 75.4609 88.7182 75.2071 88.9746C74.9533 89.231 74.609 89.375 74.25 89.375Z" fill="#FFD482"/>
<path d="M36.7066 94.9219L5.91833 81.1V18.9L36.7066 5.07812V94.9219Z" fill="#FFD482"/>
<path d="M93.9727 48.6328H52.7678L60.1333 41.1929C60.3871 40.9365 60.5297 40.5888 60.5297 40.2261C60.5297 39.8635 60.3871 39.5158 60.1333 39.2593C59.8794 39.0029 59.5351 38.8589 59.1761 38.8589C58.8171 38.8589 58.4728 39.0029 58.219 39.2593L48.5448 49.0312C48.481 49.0959 48.4238 49.1668 48.3739 49.2429C48.3546 49.2726 48.3414 49.3047 48.3244 49.3351C48.2696 49.4189 48.2305 49.5121 48.2092 49.6101C48.1968 49.6508 48.1813 49.6883 48.1728 49.7328C48.138 49.9094 48.138 50.0913 48.1728 50.2679C48.1813 50.3101 48.1968 50.3461 48.2084 50.3898C48.2197 50.4348 48.2334 50.4791 48.2494 50.5226C48.2723 50.5715 48.2982 50.619 48.3267 50.6648C48.3437 50.6953 48.3569 50.7281 48.377 50.7578C48.4269 50.8339 48.4841 50.9049 48.5479 50.9695L58.219 60.7406C58.4728 60.997 58.8171 61.1411 59.1761 61.1411C59.5351 61.1411 59.8794 60.997 60.1333 60.7406C60.3871 60.4842 60.5297 60.1364 60.5297 59.7738C60.5297 59.4112 60.3871 59.0634 60.1333 58.807L52.7678 51.3672H93.9727C94.3317 51.3672 94.6759 51.2231 94.9298 50.9667C95.1836 50.7103 95.3262 50.3626 95.3262 50C95.3262 49.6374 95.1836 49.2896 94.9298 49.0332C94.6759 48.7768 94.3317 48.6328 93.9727 48.6328Z" fill="#FFD482"/>
<path d="M10.1135 75.8461C9.75449 75.8461 9.41022 75.7021 9.15638 75.4457C8.90255 75.1893 8.75995 74.8415 8.75995 74.4789V52.0836C8.75995 51.721 8.90255 51.3733 9.15638 51.1169C9.41022 50.8605 9.75449 50.7164 10.1135 50.7164C10.4724 50.7164 10.8167 50.8605 11.0705 51.1169C11.3244 51.3733 11.467 51.721 11.467 52.0836V74.4789C11.467 74.8415 11.3244 75.1893 11.0705 75.4457C10.8167 75.7021 10.4724 75.8461 10.1135 75.8461Z" fill="#FFD482"/>
<path d="M36.7066 61.2305C36.3476 61.2305 36.0034 61.3745 35.7495 61.6309C35.4957 61.8873 35.3531 62.2351 35.3531 62.5977V67.3828C35.3531 67.7454 35.4957 68.0932 35.7495 68.3496C36.0034 68.606 36.3476 68.75 36.7066 68.75C37.0656 68.75 37.4099 68.606 37.6637 68.3496C37.9175 68.0932 38.0601 67.7454 38.0601 67.3828V62.5977C38.0601 62.2351 37.9175 61.8873 37.6637 61.6309C37.4099 61.3745 37.0656 61.2305 36.7066 61.2305Z" fill="#FFD482"/>
<path d="M37.4437 3.93125C37.2545 3.80747 37.0378 3.73324 36.8131 3.71523C36.5884 3.69723 36.3628 3.73602 36.1567 3.82812L5.36769 17.6508C5.12843 17.7583 4.92518 17.9337 4.78256 18.1555C4.63993 18.3774 4.56404 18.6362 4.56409 18.9008V34.4531C4.56409 34.8157 4.70669 35.1635 4.96052 35.4199C5.21436 35.6763 5.55863 35.8203 5.9176 35.8203C6.27658 35.8203 6.62085 35.6763 6.87468 35.4199C7.12852 35.1635 7.27112 34.8157 7.27112 34.4531V19.7891L35.3531 7.18125V56.0547C35.3531 56.4173 35.4957 56.765 35.7495 57.0214C36.0034 57.2778 36.3476 57.4219 36.7066 57.4219C37.0656 57.4219 37.4099 57.2778 37.6637 57.0214C37.9175 56.765 38.0601 56.4173 38.0601 56.0547V5.07812C38.0602 4.8502 38.0038 4.6259 37.8961 4.4256C37.7885 4.2253 37.6329 4.05536 37.4437 3.93125Z" fill="#FFD482"/>
<path d="M36.7066 72.0703C36.3476 72.0703 36.0033 72.2144 35.7495 72.4708C35.4957 72.7272 35.3531 73.0749 35.3531 73.4375V92.8188L7.27032 80.2109V43.2946C7.27032 42.932 7.12772 42.5842 6.87389 42.3278C6.62006 42.0714 6.27578 41.9274 5.91681 41.9274C5.55783 41.9274 5.21356 42.0714 4.95973 42.3278C4.7059 42.5842 4.56329 42.932 4.56329 43.2946V81.1C4.56325 81.3645 4.63914 81.6234 4.78176 81.8453C4.92439 82.0671 5.12764 82.2424 5.36689 82.35L36.1567 96.1719C36.3628 96.2645 36.5886 96.3035 36.8134 96.2855C37.0383 96.2675 37.2552 96.1931 37.4443 96.0689C37.6335 95.9446 37.7889 95.7747 37.8964 95.5743C38.0039 95.374 38.0602 95.1497 38.0601 94.9219V73.4375C38.0601 73.0749 37.9175 72.7272 37.6637 72.4708C37.4098 72.2144 37.0655 72.0703 36.7066 72.0703Z" fill="#FFD482"/>
</svg>
